<?xml version="1.0" encoding="UTF-8"?>
<svg id="Layer_2" data-name="Layer 2" xmlns="http://www.w3.org/2000/svg" viewBox="0 0 359.34 77.09">
  <defs>
    <style>
      .cls-1 {
        fill: #fff;
      }
    </style>
  </defs>
  <g id="Layer_7" data-name="Layer 7">
    <g id="logo">
      <g>
        <path class="cls-1" d="M85.91,2.71c-.84-.77-1.81-1.37-2.88-1.81-1.44-.6-3.09-.9-4.94-.9s-3.49.3-4.94.9c-1.07.44-2.03,1.04-2.88,1.81-1.99,1.8-2.99,4.2-2.99,7.19s1,5.39,2.99,7.19c2,1.81,4.6,2.71,7.82,2.71s5.83-.9,7.82-2.71c2-1.8,2.99-4.2,2.99-7.19s-.99-5.39-2.99-7.19Z"/>
        <path class="cls-1" d="M117.77,59.51c-.46.07-.82.13-1.09.17-.27.04-.6.06-.98.06-.69,0-1.4-.37-2.13-1.1-.73-.72-1.09-2.05-1.09-3.97V.9h-19.78v53.08c0,4.3.55,8.08,1.67,11.34,1.11,3.26,2.95,5.79,5.52,7.59,2.57,1.81,6.07,2.71,10.52,2.71,2.22,0,4.14-.16,5.75-.46,1.61-.31,2.91-.69,3.91-1.15l-2.3-14.5Z"/>
        <path class="cls-1" d="M144.42,59.51c-.46.07-.83.13-1.1.17-.27.04-.59.06-.97.06-.69,0-1.4-.37-2.13-1.1-.73-.72-1.09-2.05-1.09-3.97V.9h-19.79v53.08c0,4.3.56,8.08,1.67,11.34,1.11,3.26,2.95,5.79,5.52,7.59,2.57,1.81,6.08,2.71,10.53,2.71,2.22,0,4.14-.16,5.75-.46,1.61-.31,2.91-.69,3.91-1.15l-2.3-14.5Z"/>
      </g>
      <polygon class="cls-1" points="61.88 .9 61.88 75.56 42.1 75.56 42.1 44.54 19.78 44.54 19.78 75.56 0 75.56 0 .9 19.78 .9 19.78 27.28 42.1 27.28 42.1 .9 61.88 .9"/>
      <rect class="cls-1" x="68.2" y="26.93" width="19.78" height="48.63"/>
      <g>
        <path class="cls-1" d="M203.43.9l-10.81,30.62c-.69,2.07-1.35,4.22-1.96,6.44-.61,2.23-1.26,4.45-1.95,6.68h-.46c-.69-2.23-1.35-4.45-1.96-6.68-.61-2.22-1.26-4.37-1.95-6.44L173.07.9h-21.17v74.81h17.72v-22.1c0-2.53-.16-5.58-.46-9.15-.31-3.56-.66-7.13-1.04-10.7-.38-3.57-.73-6.62-1.03-9.15h.46l5.98,20.26,9.2,24.74h10.58l9.2-24.74,6.21-20.26h.46c-.31,2.53-.65,5.58-1.04,9.15-.38,3.57-.73,7.14-1.03,10.7-.31,3.57-.46,6.62-.46,9.15v22.1h17.94V.9h-21.16Z"/>
        <path class="cls-1" d="M276.8,28.35c-1.91-3.95-4.66-6.86-8.22-8.74-3.57-1.88-7.84-2.82-12.82-2.82-2.99,0-5.91.28-8.74.86-2.84.57-5.64,1.44-8.4,2.59-2.76,1.15-5.48,2.53-8.17,4.14l6.9,12.66c3-1.61,5.64-2.78,7.94-3.51,2.3-.73,4.49-1.09,6.56-1.09,1.68,0,3.1.21,4.25.63s2.03,1.08,2.65,1.96c.61.88.99,2.01,1.15,3.39-11.04,1.15-19.02,3.44-23.93,6.85-4.9,3.42-7.36,8.11-7.36,14.1,0,3.15.69,6.06,2.07,8.75,1.38,2.68,3.36,4.85,5.93,6.5,2.57,1.65,5.65,2.47,9.26,2.47,3.14,0,5.99-.63,8.56-1.9,2.57-1.26,5.01-2.93,7.31-5h.46l1.38,5.52h16.1v-31.99c0-6.29-.96-11.42-2.88-15.37ZM259.9,57.99c-1,1.15-2.04,2.09-3.11,2.82-1.07.73-2.41,1.09-4.02,1.09-1.69,0-2.99-.36-3.91-1.09-.92-.73-1.38-1.75-1.38-3.05,0-1.08.38-2.11,1.15-3.11.76-1,2.05-1.88,3.85-2.65,1.8-.76,4.27-1.38,7.42-1.84v7.83Z"/>
        <path class="cls-1" d="M320.74,42.34l20.24-24.17h-21.62l-15.42,19.79h-.46V.9h-19.55v74.81h19.55v-14.04l5.75-6.44,11.51,20.48h21.39l-21.39-33.37Z"/>
        <g id="Shape_1" data-name="Shape 1">
          <path class="cls-1" d="M355.61,68.76v-.02c.52-.18.94-.61.94-1.26,0-.39-.15-.73-.39-.94-.31-.28-.76-.41-1.44-.41-.44,0-.91.04-1.23.11v4.89h.64v-2.15h.6c.58.02.85.28,1,.97.13.62.24,1.05.32,1.19h.66c-.1-.19-.21-.67-.38-1.36-.12-.52-.35-.87-.73-1ZM354.78,68.48h-.66v-1.81c.11-.03.32-.06.63-.06.68,0,1.14.28,1.14.92,0,.57-.43.94-1.12.94ZM358.74,66.38c-.4-.71-.95-1.26-1.66-1.64-.71-.38-1.44-.57-2.18-.57s-1.47.19-2.18.57c-.71.38-1.27.93-1.66,1.64-.4.71-.6,1.46-.6,2.23s.2,1.5.59,2.21c.39.71.94,1.26,1.65,1.65.7.39,1.44.59,2.21.59s1.51-.2,2.21-.59c.7-.39,1.25-.94,1.64-1.65.39-.71.59-1.44.59-2.21s-.2-1.52-.59-2.23ZM358.11,70.45c-.33.59-.78,1.04-1.37,1.37-.59.33-1.2.49-1.84.49s-1.25-.16-1.84-.49c-.59-.33-1.05-.79-1.38-1.37-.33-.59-.49-1.2-.49-1.84s.17-1.26.5-1.86c.33-.59.8-1.05,1.39-1.37.59-.32,1.2-.48,1.82-.48s1.23.16,1.82.48c.59.32,1.05.78,1.39,1.37.33.59.5,1.21.5,1.86s-.16,1.25-.49,1.84Z"/>
        </g>
      </g>
    </g>
  </g>
</svg>