<?xml version="1.0" encoding="UTF-8"?>
<svg id="Layer_1" data-name="Layer 1" xmlns="http://www.w3.org/2000/svg" viewBox="0 0 595.28 841.89">
  <defs>
    <style>
      .cls-1, .cls-2 {
        fill: #fff;
      }

      .cls-3 {
        fill: none;
      }

      .cls-3, .cls-2 {
        stroke: #fff;
        stroke-miterlimit: 10;
        stroke-width: 2.2px;
      }

      .cls-4 {
        fill: #f05123;
      }
    </style>
  </defs>
  <g>
    <path class="cls-1" d="M199.86,355.28l14.86,49.52h-9.1l-2.17-7.31v.05h-17.5v-.05l-2.17,7.31h-9.15l14.86-49.52h10.38ZM201.08,389.76l-6.41-21.37-7.59,25.33,14.01-3.96Z"/>
    <path class="cls-1" d="M248.15,388.06v16.74h-8.77v-16.74c0-3.63-2.92-6.56-6.56-6.56s-6.56,2.92-6.56,6.56v16.74h-8.73v-16.74c0-8.44,6.84-15.33,15.28-15.33s15.33,6.89,15.33,15.33Z"/>
    <path class="cls-1" d="M260.65,388.06v1.46c0,3.58,2.97,6.56,6.56,6.56,1.84,0,3.49-.75,4.67-1.93.66-.71,1.18-1.51,1.51-2.45h8.96c-.71,5.14-4.01,9.48-8.58,11.65-1.98.94-4.2,1.46-6.56,1.46s-4.57-.52-6.56-1.46c-5.14-2.45-8.73-7.74-8.73-13.82v-1.46c0-6.13,3.58-11.37,8.73-13.82,1.98-.94,4.25-1.51,6.56-1.51s4.58.57,6.56,1.51c4.57,2.12,7.88,6.46,8.58,11.6h-8.96c-.33-.9-.85-1.75-1.51-2.45-1.18-1.18-2.83-1.89-4.67-1.89-3.58,0-6.56,2.92-6.56,6.56Z"/>
    <path class="cls-1" d="M315.59,385.85c.14.75.19,1.46.19,2.22v1.46c0,.71-.05,1.46-.19,2.17h-21.32c.9,2.55,3.35,4.39,6.18,4.39,2.45,0,4.53-1.32,5.71-3.3l6.6,5.85c-2.88,3.87-7.41,6.18-12.31,6.18-2.31,0-4.57-.52-6.56-1.46-4.53-2.17-7.83-6.51-8.58-11.65-.09-.71-.14-1.46-.14-2.17v-1.46c0-.75.05-1.46.14-2.22.75-5.14,4.06-9.48,8.58-11.6,1.98-.94,4.25-1.51,6.56-1.51s4.58.57,6.56,1.51c4.62,2.17,7.88,6.56,8.58,11.6ZM306.63,385.85c-.28-.9-.85-1.75-1.51-2.45-1.18-1.18-2.83-1.89-4.67-1.89-2.83,0-5.28,1.79-6.18,4.34h12.36Z"/>
    <path class="cls-1" d="M346.2,390.99c1.13,1.84,1.32,4.01.61,6.13-.71,2.17-2.26,3.96-4.34,5.14-2.88,1.65-6.7,2.55-10.8,2.55h-.33c-4.1-.05-8.02-.94-11.08-2.55l-.47-.24v-7.26l1.13.19c.38.05,1.08.24,2.41.61,2.55.71,6.79,1.89,8.63,1.89,3.63,0,5.66-.47,6.32-1.42.33-.47.33-1.37.05-1.65-.9-.9-3.49-1.56-5.61-2.08-1.13-.28-2.17-.52-2.97-.8-2.31-.71-4.25-1.56-5.85-2.64-1.75-1.13-2.97-2.45-3.68-3.92-1.04-2.12-.85-4.48.52-6.93v-.05h.05c1.89-2.83,5.61-4.67,10.38-5.09,4.24-.42,8.82.33,12.26,1.93l.52.24v7.78l-1.27-.42c-.14,0-.33-.09-.61-.19-4.43-1.46-7.31-2.22-8.49-2.22-1.04,0-4.2,0-4.86,1.04-.57,1.08.57,1.84,1.27,2.17,1.46.71,3.44,1.27,5.52,1.89,3.02.8,6.13,1.7,8.16,3.21,1.04.75,1.89,1.65,2.55,2.64v.05Z"/>
    <path class="cls-1" d="M364.64,396.08h5.85v8.73h-5.85c-5.66,0-10.19-4.58-10.19-10.19v-13.11h-4.39v-8.77h4.39v-8.73h8.73v8.73h4.39v8.77h-11.65v1.46c3.11,0,7.26.09,7.26,4.34v7.31c0,.8.66,1.46,1.46,1.46Z"/>
    <path class="cls-1" d="M388.6,372.73h6.56v8.77h-6.56c-.24,0-.47,0-.71.05-3.3.33-5.85,3.11-5.85,6.51v16.74h-8.73v-16.74c0-2.36.52-4.58,1.46-6.56,2.36-4.95,7.31-8.49,13.11-8.73.24-.05.47-.05.71-.05Z"/>
    <path class="cls-1" d="M427.65,388.77v16.04h-8.77v-8.73h-1.42c0,3.07-1.13,8.73-7.31,8.73-7.26,0-13.11-5.85-13.11-13.11v-5.85c0-7.22,5.85-13.11,13.11-13.11.38,0,.71.05,1.04.05h.05c.33,0,.71-.05,1.08-.05,2.36,0,4.58.57,6.56,1.56,5.19,2.59,8.77,8.11,8.77,14.48ZM418.88,388.06c0-1.84-.71-3.44-1.89-4.67-1.18-1.18-2.83-1.89-4.67-1.89-3.58,0-6.56,2.92-6.56,6.56v1.46c0,3.58,2.97,6.56,6.56,6.56,1.84,0,3.49-.75,4.67-1.93s1.89-2.83,1.89-4.62v-1.46Z"/>
    <path class="cls-4" d="M442.55,399.71c0,2.83-2.26,5.09-5.09,5.09s-5.09-2.26-5.09-5.09,2.26-5.09,5.09-5.09,5.09,2.26,5.09,5.09Z"/>
  </g>
  <g>
    <line class="cls-2" x1="130.83" y1="362.27" x2="118.93" y2="380.29"/>
    <line class="cls-2" x1="119.1" y1="380.03" x2="107.2" y2="398.05"/>
    <line class="cls-2" x1="124.02" y1="378.49" x2="146.22" y2="387.07"/>
    <line class="cls-2" x1="145.23" y1="387.38" x2="111.34" y2="397.8"/>
    <line class="cls-3" x1="152.49" y1="396.29" x2="130.91" y2="358.91"/>
    <circle class="cls-1" cx="131.92" cy="361.13" r="4.79"/>
    <circle class="cls-1" cx="107.16" cy="398.83" r="5.3"/>
    <circle class="cls-1" cx="155.36" cy="398.83" r="5.3"/>
    <circle class="cls-1" cx="120.76" cy="377.6" r="4.12"/>
    <circle class="cls-1" cx="146.85" cy="387.43" r="4.4"/>
  </g>
</svg>